<?xml version="1.0" encoding="iso-8859-1"?>
<!-- Generator: Adobe Illustrator 19.0.0, SVG Export Plug-In . SVG Version: 6.00 Build 0)  -->
<svg version="1.1" id="Capa_1" xmlns="http://www.w3.org/2000/svg" xmlns:xlink="http://www.w3.org/1999/xlink" x="0px" y="0px"
	 viewBox="0 0 482.561 482.561" style="enable-background:new 0 0 482.561 482.561;" xml:space="preserve">
<g>
	<g>
		<path d="M401.281,114.561H268.985l55.2-95.632l48.512,28l8-13.856l-55.44-32c-3.826-2.209-8.719-0.898-10.928,2.928
			l-63.824,110.56H81.281c-4.418,0-8,3.582-8,8v32c0,4.418,3.582,8,8,8h9.104l46.984,313.184c0.586,3.917,3.951,6.816,7.912,6.816
			h192c3.961,0,7.326-2.899,7.912-6.816l46.984-313.184h9.104c4.418,0,8-3.582,8-8v-32
			C409.281,118.143,405.699,114.561,401.281,114.561z M330.393,466.561H152.169l-45.6-304h269.424L330.393,466.561z
			 M393.281,146.561h-304v-16h304V146.561z"/>
	</g>
</g>
<g>
</g>
<g>
</g>
<g>
</g>
<g>
</g>
<g>
</g>
<g>
</g>
<g>
</g>
<g>
</g>
<g>
</g>
<g>
</g>
<g>
</g>
<g>
</g>
<g>
</g>
<g>
</g>
<g>
</g>
</svg>
