<?xml version="1.0" encoding="iso-8859-1"?>
<!-- Generator: Adobe Illustrator 19.0.0, SVG Export Plug-In . SVG Version: 6.00 Build 0)  -->
<svg version="1.1" id="Capa_1" xmlns="http://www.w3.org/2000/svg" xmlns:xlink="http://www.w3.org/1999/xlink" x="0px" y="0px"
	 viewBox="0 0 480 480" style="enable-background:new 0 0 480 480;" xml:space="preserve">
<g>
	<g>
		<path d="M450.412,48h-80c-10.134,0.042-19.15,6.445-22.528,16h-28.528l26.256-52.424c1.975-3.952,0.372-8.757-3.58-10.732
			c-1.124-0.562-2.364-0.851-3.62-0.844h-256c-4.418-0.002-8.002,3.578-8.004,7.996c-0.001,1.243,0.288,2.468,0.844,3.58
			l31.16,62.312V102.8L7.332,428.352c-6.433,21.134,5.484,43.481,26.618,49.914c3.78,1.151,7.71,1.735,11.662,1.734h329.6
			c22.091-0.001,39.999-17.911,39.998-40.003c0-3.946-0.584-7.87-1.734-11.646L317.212,112h30.672
			c3.378,9.555,12.394,15.958,22.528,16h80c13.255,0,24-10.745,24-24V72C474.412,58.745,463.667,48,450.412,48z M95.356,16h230.112
			l-24,48H119.356L95.356,16z M298.412,80v16h-176V80H298.412z M398.18,433.008c2.251,7.272,0.886,15.183-3.672,21.28
			c-4.506,6.14-11.68,9.751-19.296,9.712h-329.6c-13.255-0.004-23.997-10.752-23.993-24.007c0.001-2.367,0.352-4.721,1.041-6.985
			L120.34,112h180.144L398.18,433.008z M346.412,96h-32V80h32V96z M458.412,104c0,4.418-3.582,8-8,8h-80c-4.418,0-8-3.582-8-8V72
			c0-4.418,3.582-8,8-8h80c4.418,0,8,3.582,8,8V104z"/>
	</g>
</g>
<g>
</g>
<g>
</g>
<g>
</g>
<g>
</g>
<g>
</g>
<g>
</g>
<g>
</g>
<g>
</g>
<g>
</g>
<g>
</g>
<g>
</g>
<g>
</g>
<g>
</g>
<g>
</g>
<g>
</g>
</svg>
